<?xml version="1.0" standalone="no"?>
<!DOCTYPE svg PUBLIC "-//W3C//DTD SVG 1.1//EN" "http://www.w3.org/Graphics/SVG/1.1/DTD/svg11.dtd" >
<svg xmlns="http://www.w3.org/2000/svg" xmlns:xlink="http://www.w3.org/1999/xlink" version="1.1">
<metadata>
Created by FontForge 20171206 at Wed Apr 11 18:35:21 2018
 By fw_worker
Made with Scanahand. Copyright (c) Darrell Flood 2018. All Rights Reserved.
</metadata>
<defs>
<font id="KidsStuff" horiz-adv-x="1555" >
  <font-face 
    font-family="Kids Stuff"
    font-weight="400"
    font-stretch="normal"
    units-per-em="2048"
    panose-1="3 0 6 0 0 0 0 0 0 0"
    ascent="1638"
    descent="-410"
    cap-height="1838"
    bbox="24 -274 2108 2155"
    underline-thickness="150"
    underline-position="-292"
    unicode-range="U+001D-2122"
  />
<missing-glyph horiz-adv-x="2123" 
 />
    <glyph glyph-name=".notdef" horiz-adv-x="2123" 
 />
    <glyph glyph-name=".null" horiz-adv-x="0" 
 />
    <glyph glyph-name=".null" horiz-adv-x="0" 
 />
    <glyph glyph-name="nonmarkingreturn" horiz-adv-x="550" 
 />
    <glyph glyph-name="space" unicode=" " horiz-adv-x="1250" 
 />
    <glyph glyph-name="space" unicode="&#xa0;" horiz-adv-x="1250" 
 />
    <glyph glyph-name="exclam" unicode="!" horiz-adv-x="680" 
d="M469 1861q186 -32 186 -163v-47q-175 -637 -175 -828v-140q0 -170 -198 -187q-161 0 -187 257v81q0 238 199 922q70 105 175 105zM259 438h70q168 0 233 -187q11 -37 12 -59q0 -243 -315 -280q-234 63 -234 245v35q43 246 234 246z" />
    <glyph glyph-name="quotedbl" unicode="&#x22;" horiz-adv-x="925" 
d="M737 1826q163 -32 163 -187q-32 -618 -203 -634l-53 4q-140 0 -175 187q52 560 105 560q54 70 163 70zM224 1791q198 0 198 -350v-210q-35 -198 -163 -198h-59q-131 0 -163 198v105q0 108 -12 303q53 152 199 152z" />
    <glyph glyph-name="numbersign" unicode="#" horiz-adv-x="1941" 
d="M1472 1861q175 -40 175 -163v-24q0 -35 -35 -233q304 -50 304 -222q-32 -186 -187 -186q-39 0 -164 23q-11 -12 -23 -175q314 -65 344 -108.5t30 -101.5v-35q0 -140 -187 -175h-47q-111 35 -140 35h-23v-245q-32 -210 -199 -210q-151 0 -186 210v257q-374 0 -374 -59
q-11 -102 -11 -175v-117q0 -119 -187 -175q-198 50 -198 199v105l11 140q-146 -12 -175 -12q-175 46 -175 175v12q26 187 187 187q210 35 210 58q12 120 23 140l-23 12q-168 -35 -222 -35q-143 0 -175 198q0 198 292 198q198 35 198 82q41 373 234 373h11q146 0 175 -198
q0 -24 -23 -163q12 0 12 -12l81 12h199q40 0 58 245q84 163 210 163zM808 914q109 18 228 18q54 0 111 -4l24 140h-39q-157 0 -304 -21z" />
    <glyph glyph-name="dollar" unicode="$" horiz-adv-x="1707" 
d="M1090 -35v-6q0 -233 -186 -233h-24q-149 0 -175 219q-430 58 -680 493v81q38 152 152 152h35q120 0 233 -187q183 -163 397 -163h35q420 54 420 245q-48 210 -362 210q-758 0 -758 420v12q0 330 397 548q48 24 100 43v6q0 350 222 350q164 -28 164 -171q-1 -69 -1 -123h5
q455 -18 560 -280q23 -46 23 -128q-25 -210 -210 -210q-131 0 -187 210q-109 23 -175 23h-23q-413 0 -490 -268q186 -35 642 -82q478 -178 478 -572q0 -359 -478 -560q-58 -17 -114 -29z" />
    <glyph glyph-name="percent" unicode="%" horiz-adv-x="1473" 
d="M1274 1744q175 -39 175 -163v-35q0 -112 -245 -292q-538 -607 -852 -1213q-59 -53 -140 -70q-187 40 -187 163v47q55 253 595 968q459 595 654 595zM352 1628h35q222 -45 222 -199v-70q-40 -221 -222 -221h-47q-185 0 -221 245v11q39 234 233 234zM1134 869h46
q234 -46 234 -221v-35q0 -179 -257 -234q-257 32 -257 222v58q0 157 234 210z" />
    <glyph glyph-name="ampersand" unicode="&#x26;" horiz-adv-x="1893" 
d="M807 1803q377 0 513 -257q13 -25 13 -46q0 -6 -1 -12q0 -165 -210 -187q-22 0 -127.5 58.5t-222.5 58.5q-245 -24 -245 -105q0 -51 128 -94q152 12 245 12q327 0 327 -210v-12q0 -198 -373 -198q-140 12 -210 12q-234 -65 -234 -175v-59q0 -101 187 -210q59 -23 82 -23
q431 68 431 175q80 128 164 128h46q151 0 514 -420q35 -56 35 -128q0 -129 -187 -175q-96 0 -327 256h-23q-265 -161 -380 -196q-88 -28 -201 -28q-35 0 -72 3q-216 0 -432 186q-222 209 -222 432v35q0 235 199 432v12q-82 145 -82 280q0 277 373 408q151 47 292 47z" />
    <glyph glyph-name="quotesingle" unicode="'" horiz-adv-x="447" 
d="M247 1873q164 -28 164 -171q-1 -144 -1 -226v-187q0 -233 -186 -233h-24q-150 0 -175 222v245q0 350 222 350z" />
    <glyph glyph-name="parenleft" unicode="(" horiz-adv-x="1077" 
d="M842 1861q210 -35 210 -198q0 -156 -257 -210q-385 -276 -385 -677q0 -300 374 -514q46 -70 46 -128v-12q-26 -186 -186 -186q-323 107 -479 385q-140 210 -140 490q0 569 595 980q174 70 222 70z" />
    <glyph glyph-name="parenright" unicode=")" horiz-adv-x="925" 
d="M212 1873q186 0 455 -257q233 -317 233 -642v-70q-79 -505 -221 -642q-251 -256 -420 -256h-59q-146 0 -175 198q0 144 257 210q142 76 210 362q20 62 35 175q0 202 -163 432q-78 66 -280 163q-59 67 -59 117v23q24 187 187 187z" />
    <glyph glyph-name="asterisk" unicode="*" horiz-adv-x="1403" 
d="M772 1768q175 -33 175 -222v-35q168 93 233 93h35q138 0 164 -198q0 -125 -363 -273q211 -117 211 -240q0 -156 -198 -187q-34 0 -175 58q-45 -198 -175 -198h-24q-161 0 -186 198q-173 -105 -257 -105q-187 41 -187 175v24q0 146 304 291q-234 218 -234 327
q0 156 199 187q74 0 268 -175v23q0 257 210 257z" />
    <glyph glyph-name="plus" unicode="+" horiz-adv-x="1403" 
d="M772 1523q198 -33 198 -199v-35l-11 -140l23 -11h23q322 0 362 -117l12 -58v-35q-27 -175 -164 -175h-128q-58 0 -175 11q-23 -62 -23 -128q11 -204 11 -257q-51 -140 -198 -140q-163 17 -175 214t-12 276v24q-90 0 -315 -24q-131 0 -175 187q0 222 467 222h70
q33 304 82 338q61 47 128 47z" />
    <glyph glyph-name="comma" unicode="," horiz-adv-x="563" 
d="M282 858q219 0 257 -327v-35q-80 -514 -327 -514q-170 0 -187 199l129 280v58q-59 87 -59 129v46q0 129 187 164z" />
    <glyph glyph-name="hyphen" unicode="-" horiz-adv-x="1007" 
d="M772 1208q210 -32 210 -164v-58q0 -163 -292 -163q-455 -35 -455 -47q-210 27 -210 187v11q0 210 432 210q163 24 315 24z" />
    <glyph glyph-name="period" unicode="." horiz-adv-x="599" 
d="M305 834q269 -46 269 -256q0 -228 -292 -257q-257 47 -257 245q0 229 280 268z" />
    <glyph glyph-name="slash" unicode="/" horiz-adv-x="1229" 
d="M994 1791h23q187 -26 187 -187q0 -89 -280 -408q-210 -278 -560 -1085q-66 -70 -140 -70h-47q-112 0 -152 163q0 184 467 1039q114 191 420 525z" />
    <glyph glyph-name="zero" unicode="0" horiz-adv-x="1941" 
d="M1099 1733h35q566 0 758 -514q24 -159 24 -210q0 -438 -467 -805q-285 -163 -560 -163q-308 0 -677 256q-187 206 -187 432q0 336 409 724q228 205 665 280zM410 706q0 -202 502 -280q433 0 618 513v82q0 278 -338 327q-297 -35 -397 -105q-301 -205 -385 -479v-58z" />
    <glyph glyph-name="one" unicode="1" horiz-adv-x="913" 
d="M702 1814q187 -44 187 -186q-105 -375 -187 -1377q-56 -164 -163 -164h-59q-131 0 -163 199q47 335 82 840h-12q-15 0 -117 -12q-245 43 -245 187v47q0 131 187 163l82 -12q63 0 291 280q69 35 117 35z" />
    <glyph glyph-name="two" unicode="2" 
d="M982 1779h12q385 -49 385 -350q0 -287 -598 -822q188 17 318 29q431 0 431 -245q-36 -175 -210 -175q-107 35 -221 35q-216 0 -840 -105h-59q-175 43 -175 175v35q0 142 432 467q452 411 525 560v11h-12q-334 0 -700 -291h-70q-175 29 -175 163v23q0 257 724 467
q116 23 233 23z" />
    <glyph glyph-name="three" unicode="3" 
d="M1262 1756q268 -27 268 -210v-35q0 -110 -303 -315l-163 -140q396 -178 396 -443q0 -319 -431 -514q-137 -47 -280 -47q-395 0 -572 374v70q27 175 163 175h35q102 0 199 -175q80 -58 151 -58h47q292 35 292 175q-109 105 -280 105h-59q-48 0 -128 -12q-119 18 -187 105
q-23 72 -23 117q0 120 408 396l48 36q-145 -12 -666 -47q-122 0 -152 175v11q22 160 163 189t1074 68z" />
    <glyph glyph-name="four" unicode="4" horiz-adv-x="1789" 
d="M1064 1791h46q132 0 164 -187q0 -118 -397 -560l-152 -186v-12h292q23 0 23 23v129q0 152 210 175q126 0 164 -187v-105q3 -23 23 -23h140q187 -32 187 -164v-46q0 -154 -257 -175h-82q-35 0 -46 -327q-60 -210 -210 -210q-153 0 -187 198q35 149 35 327h-245
q-156 0 -607 -23q-140 53 -140 175v46q0 92 245 280q332 341 677 794q67 58 117 58z" />
    <glyph glyph-name="five" unicode="5" horiz-adv-x="1439" 
d="M1087 1779q327 0 327 -198q0 -151 -199 -187h-245q-513 0 -513 -70q-12 -45 -12 -93v-23l304 23q565 0 665 -397v-81q0 -284 -315 -514q-96 -58 -292 -82q-203 0 -408 175q-47 65 -47 129q43 175 163 175h35q41 0 245 -93h12q176 0 222 233q0 52 -280 70q-132 0 -537 -47
q-143 0 -187 210q71 607 160.5 674.5t349.5 81.5t552 14z" />
    <glyph glyph-name="six" unicode="6" horiz-adv-x="1812" 
d="M1064 1884h46q226 0 269 -163v-70q-38 -152 -152 -152h-175q-197 0 -467 -326v-12q199 47 350 47h12q653 0 829 -444q12 -40 12 -77q0 -8 -1 -16q0 -427 -770 -549q-67 -12 -174 -12q-23 0 -48 1q-561 0 -746 455q-25 84 -25 165q0 17 1 33q0 362 385 794
q346 326 654 326zM410 706q56 -222 444 -222q536 73 536 187q-67 142 -385 152h-81q-231 0 -514 -117z" />
    <glyph glyph-name="seven" unicode="7" horiz-adv-x="1567" 
d="M1355 1791q148 0 187 -198q0 -71 -222 -362l-641 -1155q-86 -70 -152 -70q-175 46 -175 163v70q0 70 618 1144v11h-11q-498 -23 -735 -58q-199 31 -199 187v35q0 198 595 198q141 12 735 35z" />
    <glyph glyph-name="eight" unicode="8" horiz-adv-x="1450" 
d="M924 1721h11q400 0 479 -257q11 -45 11 -93q0 -226 -396 -525q338 -161 338 -397q0 -293 -583 -443q-83 -12 -140 -12q-341 0 -537 245q-47 80 -47 140v47q0 156 210 362q-245 218 -245 420q0 397 700 501q75 12 199 12zM422 1208q122 -164 198 -164h12q269 171 362 292
h-140q-287 0 -432 -128zM469 414q109 -35 198 -35q93 0 257 82q-94 75 -269 128q-108 -53 -186 -175z" />
    <glyph glyph-name="nine" unicode="9" horiz-adv-x="1695" 
d="M1484 1803q161 0 187 -199q-82 -519 -82 -968v-385q0 -215 -187 -257q-198 53 -198 198v397q-137 -11 -199 -11h-105q-638 0 -840 361q-35 79 -35 129v81q0 400 642 584q123 23 280 35q88 0 385 -47q51 82 152 82zM484 1253q-46 -47 -46 -103q0 -44 30 -95
q57 -95 533 -95q88 0 191 3q32 0 58 361q-64 43 -238 43q-66 0 -147 -6q-297 -23 -381 -108z" />
    <glyph glyph-name="colon" unicode=":" horiz-adv-x="563" 
d="M282 1441h35q222 -40 222 -222v-46q-70 -222 -304 -222q-153 0 -198 222v35q0 190 245 233zM294 846q202 0 245 -257q0 -191 -257 -245q-195 0 -257 175v70q0 199 269 257z" />
    <glyph glyph-name="semicolon" unicode=";" horiz-adv-x="610" 
d="M340 1406q234 -40 234 -222v-70q0 -159 -257 -221h-47q-245 50 -245 233q37 232 163 256t152 24zM329 823q219 0 256 -327v-35q0 -260 -268 -432q-39 -22 -70 -23q-187 40 -187 186v35q0 61 117 176q23 42 23 93q-58 83 -58 140q41 187 187 187z" />
    <glyph glyph-name="less" unicode="&#x3c;" horiz-adv-x="1193" 
d="M1005 1656q132 -17 164 -203v-24q0 -157 -525 -385q420 -231 420 -350v-46q0 -132 -187 -164q-89 0 -467 234q-385 154 -385 350q0 158 467 315q329 183 513 273z" />
    <glyph glyph-name="equal" unicode="=" horiz-adv-x="1123" 
d="M784 1371q280 0 280 -222q-47 -163 -164 -163h-151q-215 0 -537 -47q-175 44 -175 199q0 233 677 233h70zM597 846h36q339 0 401 -54q65 -58 65 -144v-35q-47 -164 -164 -164q-312 12 -385 12q-133 0 -338 -47q-187 35 -187 164v46q0 222 572 222z" />
    <glyph glyph-name="greater" unicode="&#x3e;" horiz-adv-x="1100" 
d="M212 1499q78 0 303 -151q560 -272 560 -420v-59q0 -147 -338 -256q-361 -199 -420 -199h-23q-175 27 -175 164v35q0 140 373 315q-381 221 -424 262t-43 134q0 137 187 175z" />
    <glyph glyph-name="question" unicode="?" horiz-adv-x="1695" 
d="M994 1896q536 0 665 -373q12 -80 12 -129q0 -361 -607 -525q-42 0 -70 -233q-68 -105 -187 -105q-175 40 -175 198q0 324 198 444q455 176 455 221v35q-39 82 -303 82q-435 0 -642 -303q-58 -35 -93 -35h-47q-133 0 -175 198q0 297 724 502q146 23 245 23zM807 403h47
q233 -47 233 -234v-23q0 -179 -233 -245h-12q-268 62 -268 268q54 234 233 234z" />
    <glyph glyph-name="at" unicode="@" horiz-adv-x="1812" 
d="M1099 1908q309 0 513 -245q129 -178 129 -385q0 -378 -549 -584q-105 -23 -152 -23q-280 31 -280 222v11q36 199 187 199q90 -18 128 -47q280 101 280 233v12q-28 210 -210 210h-70q-374 0 -653 -583l-23 -152q0 -283 280 -373q50 -24 198 -36q248 0 642 211q59 23 81 23
q187 -32 187 -187v-23q0 -187 -618 -362q-104 -32 -292 -47q-557 0 -793 479q-59 134 -59 412t362 696q366 339 712 339z" />
    <glyph glyph-name="A" unicode="A" horiz-adv-x="1509" 
d="M1099 1803q238 0 315 -269q27 0 48.5 -665t21.5 -747q0 -167 -210 -186q-92 0 -175 140q-183 -24 -374 -35q-578 0 -688 315l-12 70v35q0 363 572 572q189 70 467 70v163q0 140 -24 140q-258 -60 -676 -350l-70 -12h-35q-118 0 -164 175q0 244 817 549q124 35 187 35z
M480 554q-25 -30 -25 -52q0 -30 45 -47q77 -29 225 -29q350 12 350 58v187q-4 59 -73 59q-9 0 -20 -1q-222 0 -502 -175z" />
    <glyph glyph-name="A" unicode="a" horiz-adv-x="1509" 
d="M1099 1803q238 0 315 -269q27 0 48.5 -665t21.5 -747q0 -167 -210 -186q-92 0 -175 140q-183 -24 -374 -35q-578 0 -688 315l-12 70v35q0 363 572 572q189 70 467 70v163q0 140 -24 140q-258 -60 -676 -350l-70 -12h-35q-118 0 -164 175q0 244 817 549q124 35 187 35z
M480 554q-25 -30 -25 -52q0 -30 45 -47q77 -29 225 -29q350 12 350 58v187q-4 59 -73 59q-9 0 -20 -1q-222 0 -502 -175z" />
    <glyph glyph-name="B" unicode="B" horiz-adv-x="1707" 
d="M212 1943q198 -34 198 -199q12 -251 24 -350q349 257 606 257q422 0 631 -723q11 -77 11 -152v-35q0 -399 -420 -665q-180 -82 -350 -82q-164 0 -513 128q-63 -116 -175 -116q-167 0 -199 210q24 511 24 863q0 231 -12 712q66 152 175 152zM411 528q294 -152 513 -152
q229 0 318 177q67 134 67 255q0 39 -7 76q-28 153 -149 266q-91 85 -183 85q-31 0 -61 -9q-123 -37 -393 -278q-104 -255 -105 -420z" />
    <glyph glyph-name="B" unicode="b" horiz-adv-x="1707" 
d="M212 1943q198 -34 198 -199q12 -251 24 -350q349 257 606 257q422 0 631 -723q11 -77 11 -152v-35q0 -399 -420 -665q-180 -82 -350 -82q-164 0 -513 128q-63 -116 -175 -116q-167 0 -199 210q24 511 24 863q0 231 -12 712q66 152 175 152zM411 528q294 -152 513 -152
q229 0 318 177q67 134 67 255q0 39 -7 76q-28 153 -149 266q-91 85 -183 85q-31 0 -61 -9q-123 -37 -393 -278q-104 -255 -105 -420z" />
    <glyph glyph-name="C" unicode="C" 
d="M1005 1698q312 0 397 -315v-24q-23 -186 -187 -186q-116 0 -198 140h-12q-272 0 -548 -444q-47 -118 -58 -256q0 -292 280 -292q242 0 560 257q60 35 116 35q153 0 175 -210q0 -151 -455 -374q-215 -93 -431 -93h-10q-241 0 -418 150q-181 152 -191 468v94q0 576 677 980
q225 70 303 70z" />
    <glyph glyph-name="C" unicode="c" 
d="M1005 1698q312 0 397 -315v-24q-23 -186 -187 -186q-116 0 -198 140h-12q-272 0 -548 -444q-47 -118 -58 -256q0 -292 280 -292q242 0 560 257q60 35 116 35q153 0 175 -210q0 -151 -455 -374q-215 -93 -431 -93h-10q-241 0 -418 150q-181 152 -191 468v94q0 576 677 980
q225 70 303 70z" />
    <glyph glyph-name="D" unicode="D" horiz-adv-x="1753" 
d="M1542 1919q187 -46 187 -175v-35q-140 -439 -140 -665q-12 -134 -12 -350v-23q0 -168 12 -455q-58 -164 -210 -164l-140 47q-256 -93 -385 -93q-563 0 -770 455q-59 161 -59 397q0 497 619 723q121 35 245 35q216 0 385 -70q109 373 268 373zM399 811q0 -420 455 -420
q206 0 326 152q-31 300 -35 583q0 105 -233 105h-58q-284 0 -432 -292q-23 -112 -23 -128z" />
    <glyph glyph-name="D" unicode="d" horiz-adv-x="1753" 
d="M1542 1919q187 -46 187 -175v-35q-140 -439 -140 -665q-12 -134 -12 -350v-23q0 -168 12 -455q-58 -164 -210 -164l-140 47q-256 -93 -385 -93q-563 0 -770 455q-59 161 -59 397q0 497 619 723q121 35 245 35q216 0 385 -70q109 373 268 373zM399 811q0 -420 455 -420
q206 0 326 152q-31 300 -35 583q0 105 -233 105h-58q-284 0 -432 -292q-23 -112 -23 -128z" />
    <glyph glyph-name="E" unicode="E" horiz-adv-x="1695" 
d="M1052 1779h47q572 -61 572 -513q0 -297 -351 -502q-153 -69 -383 -96t-483 55l26 -52q168 -245 444 -245h93q136 0 408 82h24q163 -41 163 -152v-47q0 -182 -385 -245q-104 -23 -280 -23q-450 0 -758 373q-164 251 -164 572v23q0 509 537 689q238 81 490 81zM436 1119
q34 -63 364 -83q485 20 485 242q0 94 -151 116h-117q-595 -59 -581 -275z" />
    <glyph glyph-name="E" unicode="e" horiz-adv-x="1695" 
d="M1052 1779h47q572 -61 572 -513q0 -297 -351 -502q-153 -69 -383 -96t-483 55l26 -52q168 -245 444 -245h93q136 0 408 82h24q163 -41 163 -152v-47q0 -182 -385 -245q-104 -23 -280 -23q-450 0 -758 373q-164 251 -164 572v23q0 509 537 689q238 81 490 81zM436 1119
q34 -63 364 -83q485 20 485 242q0 94 -151 116h-117q-595 -59 -581 -275z" />
    <glyph glyph-name="F" unicode="F" horiz-adv-x="1882" 
d="M1180 1814h12q533 0 654 -466q11 -41 11 -117q-41 -163 -175 -163h-46q-135 0 -176 256q-79 105 -245 105h-46q-336 0 -467 -280l-23 -93q24 -2 49 -2q147 0 336 60q198 -27 198 -198q0 -183 -420 -245l-175 -23q0 -185 105 -526q0 -134 -187 -186q-149 0 -221 221
q-59 218 -94 491q-245 21 -245 186q0 171 269 199q0 338 303 595q292 186 583 186z" />
    <glyph glyph-name="F" unicode="f" horiz-adv-x="1882" 
d="M1180 1814h12q533 0 654 -466q11 -41 11 -117q-41 -163 -175 -163h-46q-135 0 -176 256q-79 105 -245 105h-46q-336 0 -467 -280l-23 -93q24 -2 49 -2q147 0 336 60q198 -27 198 -198q0 -183 -420 -245l-175 -23q0 -185 105 -526q0 -134 -187 -186q-149 0 -221 221
q-59 218 -94 491q-245 21 -245 186q0 171 269 199q0 338 303 595q292 186 583 186z" />
    <glyph glyph-name="G" unicode="G" horiz-adv-x="1731" 
d="M1215 1919q491 0 491 -221v-12q0 -66 -70 -163q35 -183 35 -420v-35q0 -441 -246 -771q-289 -315 -770 -315h-11q-537 42 -537 269v11q23 187 187 187q257 -82 303 -82h47q409 0 525 246h-12q-48 0 -128 -12q-750 0 -969 385q-35 112 -35 175v58q0 460 864 677
q195 23 326 23zM451 1259q-19 -37 -19 -68q0 -176 585 -205h12q139 0 256 35q6 63 6 123q0 110 -19 213q-30 157 -108 164q-589 -24 -713 -262z" />
    <glyph glyph-name="G" unicode="g" horiz-adv-x="1731" 
d="M1215 1919q491 0 491 -221v-12q0 -66 -70 -163q35 -183 35 -420v-35q0 -441 -246 -771q-289 -315 -770 -315h-11q-537 42 -537 269v11q23 187 187 187q257 -82 303 -82h47q409 0 525 246h-12q-48 0 -128 -12q-750 0 -969 385q-35 112 -35 175v58q0 460 864 677
q195 23 326 23zM451 1259q-19 -37 -19 -68q0 -176 585 -205h12q139 0 256 35q6 63 6 123q0 110 -19 213q-30 157 -108 164q-589 -24 -713 -262z" />
    <glyph glyph-name="H" unicode="H" horiz-adv-x="1637" 
d="M235 1861q199 0 199 -315v-187l11 -116h12q325 256 607 256q392 0 513 -373q35 -135 35 -280v-23q0 -235 -163 -747q-87 -70 -140 -70h-24q-175 46 -175 175v23l117 584v93q0 233 -140 233h-47q-216 0 -501 -350q-129 -239 -129 -665q0 -80 -186 -140q-199 45 -199 198
v59q35 423 35 467v396q0 227 -11 630q66 152 186 152z" />
    <glyph glyph-name="H" unicode="h" horiz-adv-x="1637" 
d="M235 1861q199 0 199 -315v-187l11 -116h12q325 256 607 256q392 0 513 -373q35 -135 35 -280v-23q0 -235 -163 -747q-87 -70 -140 -70h-24q-175 46 -175 175v23l117 584v93q0 233 -140 233h-47q-216 0 -501 -350q-129 -239 -129 -665q0 -80 -186 -140q-199 45 -199 198
v59q35 423 35 467v396q0 227 -11 630q66 152 186 152z" />
    <glyph glyph-name="I" unicode="I" horiz-adv-x="633" 
d="M352 1838q257 -55 257 -257v-47q0 -217 -304 -280q-280 62 -280 269q0 288 327 315zM317 1161q210 -45 210 -303v-94q0 -657 -61 -737t-172 -103q-158 0 -187 198q35 177 35 514v210l-23 140q0 137 198 175z" />
    <glyph glyph-name="I" unicode="i" horiz-adv-x="633" 
d="M352 1838q257 -55 257 -257v-47q0 -217 -304 -280q-280 62 -280 269q0 288 327 315zM317 1161q210 -45 210 -303v-94q0 -657 -61 -737t-172 -103q-158 0 -187 198q35 177 35 514v210l-23 140q0 137 198 175z" />
    <glyph glyph-name="J" unicode="J" 
d="M995 1886h76q168 0 229 -255v-38q-56 -279 -267 -279h-51q-267 50 -267 279v13q60 280 280 280zM1215 1266q247 0 315 -712v-35q0 -378 -420 -525q-202 -58 -373 -58q-251 0 -502 163q-210 191 -210 444v35q0 359 199 478l70 12q161 0 186 -199q-58 -151 -81 -303
q0 -245 373 -245q373 24 373 187v81q0 149 -128 479v11q0 148 198 187z" />
    <glyph glyph-name="J" unicode="j" 
d="M995 1886h76q168 0 229 -255v-38q-56 -279 -267 -279h-51q-267 50 -267 279v13q60 280 280 280zM1215 1266q247 0 315 -712v-35q0 -378 -420 -525q-202 -58 -373 -58q-251 0 -502 163q-210 191 -210 444v35q0 359 199 478l70 12q161 0 186 -199q-58 -151 -81 -303
q0 -245 373 -245q373 24 373 187v81q0 149 -128 479v11q0 148 198 187z" />
    <glyph glyph-name="K" unicode="K" horiz-adv-x="1625" 
d="M212 1849q187 0 210 -280q23 -188 23 -431h12q222 105 747 420q42 23 93 23q140 0 175 -187q0 -154 -338 -315q-315 -198 -350 -210q145 -100 490 -221q326 -81 326 -222v-59q-53 -153 -183 -153q-13 0 -27 2q-547 162 -921 373q11 -413 11 -432q-9 -116 -62.5 -163
t-147.5 -47q-140 0 -175 210q-35 1482 -70 1482q44 210 187 210z" />
    <glyph glyph-name="K" unicode="k" horiz-adv-x="1625" 
d="M212 1849q187 0 210 -280q23 -188 23 -431h12q222 105 747 420q42 23 93 23q140 0 175 -187q0 -154 -338 -315q-315 -198 -350 -210q145 -100 490 -221q326 -81 326 -222v-59q-53 -153 -183 -153q-13 0 -27 2q-547 162 -921 373q11 -413 11 -432q-9 -116 -62.5 -163
t-147.5 -47q-140 0 -175 210q-35 1482 -70 1482q44 210 187 210z" />
    <glyph glyph-name="L" unicode="L" horiz-adv-x="762" 
d="M305 1838q187 -43 187 -234q-93 -811 -93 -968q20 -339 70 -339q49 0 137 6h6q83 0 125 -169q0 -222 -303 -222q-328 0 -397 502q-12 36 -12 140v129q65 1108 152 1108q58 35 128 47z" />
    <glyph glyph-name="L" unicode="l" horiz-adv-x="762" 
d="M305 1838q187 -43 187 -234q-93 -811 -93 -968q20 -339 70 -339q49 0 137 6h6q83 0 125 -169q0 -222 -303 -222q-328 0 -397 502q-12 36 -12 140v129q65 1108 152 1108q58 35 128 47z" />
    <glyph glyph-name="M" unicode="M" horiz-adv-x="2045" 
d="M1484 1441q189 0 362 -198q175 -206 175 -409v-81q0 -321 -234 -642q-111 -47 -128 -47q-187 35 -187 187v23q0 25 128 280q36 114 47 222q0 161 -163 280q-111 0 -210 -572q-96 -117 -175 -117q-199 39 -199 199q-54 303 -106.5 367.5t-138.5 64.5q-140 -26 -140 -234
v-326q0 -221 -151 -269h-70q-166 0 -199 339q-70 501 -70 665q28 198 199 198q48 0 140 -70h23q124 82 257 82h23q212 0 420 -199q158 257 397 257z" />
    <glyph glyph-name="M" unicode="m" horiz-adv-x="2045" 
d="M1484 1441q189 0 362 -198q175 -206 175 -409v-81q0 -321 -234 -642q-111 -47 -128 -47q-187 35 -187 187v23q0 25 128 280q36 114 47 222q0 161 -163 280q-111 0 -210 -572q-96 -117 -175 -117q-199 39 -199 199q-54 303 -106.5 367.5t-138.5 64.5q-140 -26 -140 -234
v-326q0 -221 -151 -269h-70q-166 0 -199 339q-70 501 -70 665q28 198 199 198q48 0 140 -70h23q124 82 257 82h23q212 0 420 -199q158 257 397 257z" />
    <glyph glyph-name="N" unicode="N" horiz-adv-x="1789" 
d="M212 1768h12q198 0 198 -339h12q311 292 595 292q367 0 642 -420q93 -179 93 -385v-82q0 -422 -362 -758q-76 -24 -105 -24q-137 0 -175 187q0 83 210 350q38 96 58 280q0 330 -291 455q-21 12 -47 12h-35q-184 0 -385 -280q-128 -231 -128 -747q0 -29 11 -93
q-37 -187 -186 -187h-35q-154 0 -175 245q-47 831 -94 1295q31 199 187 199z" />
    <glyph glyph-name="N" unicode="n" horiz-adv-x="1789" 
d="M212 1768h12q198 0 198 -339h12q311 292 595 292q367 0 642 -420q93 -179 93 -385v-82q0 -422 -362 -758q-76 -24 -105 -24q-137 0 -175 187q0 83 210 350q38 96 58 280q0 330 -291 455q-21 12 -47 12h-35q-184 0 -385 -280q-128 -231 -128 -747q0 -29 11 -93
q-37 -187 -186 -187h-35q-154 0 -175 245q-47 831 -94 1295q31 199 187 199z" />
    <glyph glyph-name="O" unicode="O" horiz-adv-x="1941" 
d="M1099 1733h35q566 0 758 -514q24 -159 24 -210q0 -438 -467 -805q-285 -163 -560 -163q-308 0 -677 256q-187 206 -187 432q0 336 409 724q228 205 665 280zM410 706q0 -202 502 -280q433 0 618 513v82q0 278 -338 327q-297 -35 -397 -105q-301 -205 -385 -479v-58z" />
    <glyph glyph-name="O" unicode="o" horiz-adv-x="1941" 
d="M1099 1733h35q566 0 758 -514q24 -159 24 -210q0 -438 -467 -805q-285 -163 -560 -163q-308 0 -677 256q-187 206 -187 432q0 336 409 724q228 205 665 280zM410 706q0 -202 502 -280q433 0 618 513v82q0 278 -338 327q-297 -35 -397 -105q-301 -205 -385 -479v-58z" />
    <glyph glyph-name="P" unicode="P" horiz-adv-x="1613" 
d="M270 1849q8 1 16 1q89 0 148 -71q152 47 396 70q526 0 724 -431q35 -85 35 -183v-16q0 -438 -549 -618q-209 -58 -420 -58q-7 0 -151 11q0 -381 -94 -443q-44 -35 -105 -35h-46q-104 0 -152 151q12 371 35 806v350q0 142 -23 268q47 198 186 198zM492 1371v-128
q0 -99 -12 -292q46 -23 129 -23h35q340 0 513 163q47 61 47 128q0 137 -140 199q-80 35 -234 46q-338 -35 -338 -93z" />
    <glyph glyph-name="P" unicode="p" horiz-adv-x="1613" 
d="M270 1849q8 1 16 1q89 0 148 -71q152 47 396 70q526 0 724 -431q35 -85 35 -183v-16q0 -438 -549 -618q-209 -58 -420 -58q-7 0 -151 11q0 -381 -94 -443q-44 -35 -105 -35h-46q-104 0 -152 151q12 371 35 806v350q0 142 -23 268q47 198 186 198zM492 1371v-128
q0 -99 -12 -292q46 -23 129 -23h35q340 0 513 163q47 61 47 128q0 137 -140 199q-80 35 -234 46q-338 -35 -338 -93z" />
    <glyph glyph-name="Q" unicode="Q" horiz-adv-x="1859" 
d="M1262 1861q324 -10 384 -69t60 -141q0 -139 -211 -198q-93 -621 -93 -969q179 59 257 59q137 0 175 -187q0 -168 -163.5 -206.5t-273 -123t-205.5 -102.5q-133 28 -187 105q-23 87 -23 117q23 292 31 367l-241 -40q-537 0 -712 396q-35 115 -35 210q0 635 980 759
q175 23 257 23zM410 1091v-47q0 -186 350 -186q88 0 280 58l59 548q-424 -52 -584 -163q-105 -106 -105 -210z" />
    <glyph glyph-name="Q" unicode="q" horiz-adv-x="1859" 
d="M1262 1861q324 -10 384 -69t60 -141q0 -139 -211 -198q-93 -621 -93 -969q179 59 257 59q137 0 175 -187q0 -168 -163.5 -206.5t-273 -123t-205.5 -102.5q-133 28 -187 105q-23 87 -23 117q23 292 31 367l-241 -40q-537 0 -712 396q-35 115 -35 210q0 635 980 759
q175 23 257 23zM410 1091v-47q0 -186 350 -186q88 0 280 58l59 548q-424 -52 -584 -163q-105 -106 -105 -210z" />
    <glyph glyph-name="R" unicode="R" horiz-adv-x="1462" 
d="M970 1756q333 0 444 -350q23 -93 23 -198q-30 -304 -198 -304h-47q-129 0 -163 187q23 105 23 152v11q0 91 -58 117h-35q-286 0 -502 -525q-23 -117 -23 -210v-233q0 -357 -94 -432q-56 -47 -140 -47q-143 0 -175 198q24 93 35 479l-35 957q52 163 152 163h70
q163 -47 163 -210h12q281 245 548 245z" />
    <glyph glyph-name="R" unicode="r" horiz-adv-x="1462" 
d="M970 1756q333 0 444 -350q23 -93 23 -198q-30 -304 -198 -304h-47q-129 0 -163 187q23 105 23 152v11q0 91 -58 117h-35q-286 0 -502 -525q-23 -117 -23 -210v-233q0 -357 -94 -432q-56 -47 -140 -47q-143 0 -175 198q24 93 35 479l-35 957q52 163 152 163h70
q163 -47 163 -210h12q281 245 548 245z" />
    <glyph glyph-name="S" unicode="S" horiz-adv-x="1707" 
d="M1064 1861q455 -18 560 -280q23 -46 23 -128q-25 -210 -210 -210q-131 0 -187 210q-109 23 -175 23h-23q-413 0 -490 -268q186 -35 642 -82q478 -178 478 -572q0 -359 -478 -560q-197 -58 -362 -58q-528 0 -817 502v81q38 152 152 152h35q120 0 233 -187
q183 -163 397 -163h35q420 54 420 245q-48 210 -362 210q-758 0 -758 420v12q0 330 397 548q207 105 490 105z" />
    <glyph glyph-name="S" unicode="s" horiz-adv-x="1707" 
d="M1064 1861q455 -18 560 -280q23 -46 23 -128q-25 -210 -210 -210q-131 0 -187 210q-109 23 -175 23h-23q-413 0 -490 -268q186 -35 642 -82q478 -178 478 -572q0 -359 -478 -560q-197 -58 -362 -58q-528 0 -817 502v81q38 152 152 152h35q120 0 233 -187
q183 -163 397 -163h35q420 54 420 245q-48 210 -362 210q-758 0 -758 420v12q0 330 397 548q207 105 490 105z" />
    <glyph glyph-name="T" unicode="T" horiz-adv-x="1731" 
d="M725 1803h47q137 0 175 -210v-82l-4 -47l104 6q495 -1 572 -56t87 -160v-11q-44 -175 -176 -175q-296 23 -478 23h-128q-47 0 -47 -385q0 -198 187 -198q291 -20 291 -199q0 -158 -210 -198q-280 0 -478 151q-175 172 -175 479q12 263 23 312l-23 -9l-292 -46
q-134 0 -175 186q0 202 332 234l193 22q0 363 175 363z" />
    <glyph glyph-name="T" unicode="t" horiz-adv-x="1731" 
d="M725 1803h47q137 0 175 -210v-82l-4 -47l104 6q495 -1 572 -56t87 -160v-11q-44 -175 -176 -175q-296 23 -478 23h-128q-47 0 -47 -385q0 -198 187 -198q291 -20 291 -199q0 -158 -210 -198q-280 0 -478 151q-175 172 -175 479q12 263 23 312l-23 -9l-292 -46
q-134 0 -175 186q0 202 332 234l193 22q0 363 175 363z" />
    <glyph glyph-name="U" unicode="U" horiz-adv-x="1777" 
d="M527 1814q187 -44 187 -186q0 -89 -199 -304q-105 -180 -105 -338v-47q0 -229 304 -338q45 -12 93 -12h47q283 0 455 444q32 537 91 598.5t165 66.5q138 0 176 -199q-47 -180 -47 -665v-46q0 -158 58 -479q-41 -163 -175 -163h-47q-123 0 -186 245q-236 -187 -514 -187
q-528 0 -758 514q-47 122 -47 268q0 412 374 782q58 35 128 46z" />
    <glyph glyph-name="U" unicode="u" horiz-adv-x="1777" 
d="M527 1814q187 -44 187 -186q0 -89 -199 -304q-105 -180 -105 -338v-47q0 -229 304 -338q45 -12 93 -12h47q283 0 455 444q32 537 91 598.5t165 66.5q138 0 176 -199q-47 -180 -47 -665v-46q0 -158 58 -479q-41 -163 -175 -163h-47q-123 0 -186 245q-236 -187 -514 -187
q-528 0 -758 514q-47 122 -47 268q0 412 374 782q58 35 128 46z" />
    <glyph glyph-name="V" unicode="V" horiz-adv-x="1579" 
d="M1340 1706q184 -20 214 -195v-12q0 -86 -140 -256q-204 -267 -549 -1062q-70 -70 -151 -70h-12q-224 0 -408 677q-129 402 -257 630q-12 19 -12 58q0 167 199 187q224 0 480 -907q200 478 523 860q48 70 113 90z" />
    <glyph glyph-name="V" unicode="v" horiz-adv-x="1579" 
d="M1340 1706q184 -20 214 -195v-12q0 -86 -140 -256q-204 -267 -549 -1062q-70 -70 -151 -70h-12q-224 0 -408 677q-129 402 -257 630q-12 19 -12 58q0 167 199 187q224 0 480 -907q200 478 523 860q48 70 113 90z" />
    <glyph glyph-name="W" unicode="W" horiz-adv-x="1859" 
d="M1600 1441q234 -42 234 -315q0 -332 -210 -759q-143 -210 -327 -210q-174 0 -420 386q-178 -397 -362 -397h-23q-206 0 -292 420q-175 531 -175 560q0 178 222 198q160 0 210 -326q75 -231 93 -245q122 373 315 373h12q144 0 327 -385q93 -128 105 -128q56 0 151 455v23
q-46 127 -46 163q23 187 186 187z" />
    <glyph glyph-name="W" unicode="w" horiz-adv-x="1859" 
d="M1600 1441q234 -42 234 -315q0 -332 -210 -759q-143 -210 -327 -210q-174 0 -420 386q-178 -397 -362 -397h-23q-206 0 -292 420q-175 531 -175 560q0 178 222 198q160 0 210 -326q75 -231 93 -245q122 373 315 373h12q144 0 327 -385q93 -128 105 -128q56 0 151 455v23
q-46 127 -46 163q23 187 186 187z" />
    <glyph glyph-name="X" unicode="X" horiz-adv-x="1590" 
d="M177 1499h47q138 0 548 -361h12q420 326 560 326h46q155 0 175 -198q0 -123 -338 -268q-148 -114 -152 -129q327 -262 350 -443q-32 -187 -186 -187h-24q-95 0 -233 210q-70 59 -210 175q-65 -41 -455 -373q-38 -24 -70 -24h-58q-152 39 -152 152v59q0 107 362 373
q0 11 86 83l-296 220q-164 74 -164 175v59q38 151 152 151z" />
    <glyph glyph-name="X" unicode="x" horiz-adv-x="1590" 
d="M177 1499h47q138 0 548 -361h12q420 326 560 326h46q155 0 175 -198q0 -123 -338 -268q-148 -114 -152 -129q327 -262 350 -443q-32 -187 -186 -187h-24q-95 0 -233 210q-70 59 -210 175q-65 -41 -455 -373q-38 -24 -70 -24h-58q-152 39 -152 152v59q0 107 362 373
q0 11 86 83l-296 220q-164 74 -164 175v59q38 151 152 151z" />
    <glyph glyph-name="Y" unicode="Y" horiz-adv-x="1719" 
d="M1507 1861q187 -44 187 -175v-23q0 -87 -315 -560q-654 -1069 -654 -1121q-40 -66 -140 -70q-198 50 -198 199q0 92 362 700v12q-274 315 -525 420q-199 46 -199 198v23q0 146 175 175h24q238 -18 745 -476q358 612 419 655t119 43z" />
    <glyph glyph-name="Y" unicode="y" horiz-adv-x="1719" 
d="M1507 1861q187 -44 187 -175v-23q0 -87 -315 -560q-654 -1069 -654 -1121q-40 -66 -140 -70q-198 50 -198 199q0 92 362 700v12q-274 315 -525 420q-199 46 -199 198v23q0 146 175 175h24q238 -18 745 -476q358 612 419 655t119 43z" />
    <glyph glyph-name="Z" unicode="Z" horiz-adv-x="1823" 
d="M854 1768h23q617 0 700 -257v-105q0 -148 -420 -397q-323 -238 -467 -385h12q276 24 467 24h455q131 0 175 -187q0 -199 -269 -199h-443q-263 0 -828 -105h-35q-159 0 -199 210q0 256 945 981l35 35h-268q-146 0 -362 -12q-175 46 -175 163v59q0 163 327 163
q32 12 327 12z" />
    <glyph glyph-name="Z" unicode="z" horiz-adv-x="1823" 
d="M854 1768h23q617 0 700 -257v-105q0 -148 -420 -397q-323 -238 -467 -385h12q276 24 467 24h455q131 0 175 -187q0 -199 -269 -199h-443q-263 0 -828 -105h-35q-159 0 -199 210q0 256 945 981l35 35h-268q-146 0 -362 -12q-175 46 -175 163v59q0 163 327 163
q32 12 327 12z" />
    <glyph glyph-name="bracketleft" unicode="[" horiz-adv-x="1123" 
d="M387 1861h467q245 0 245 -198v-12q-30 -175 -222 -175h-420q-58 -592 -58 -1027v-35q0 -47 280 -47h81q234 0 234 -186v-12q0 -168 -210 -187h-12q-587 3 -667 77t-80 262v175q0 1045 117 1260q96 105 245 105z" />
    <glyph glyph-name="backslash" unicode="\" horiz-adv-x="960" 
d="M235 1861q162 0 245 -432q210 -596 455 -1097v-70q0 -137 -198 -163q-167 0 -338 502q-175 370 -374 1027v35q0 167 199 198h11z" />
    <glyph glyph-name="bracketright" unicode="]" horiz-adv-x="1217" 
d="M247 1861q494 -35 817 -47q128 -79 128 -163v-12q0 -87 -105 -1318q0 -327 -187 -327h-23q-52 0 -257 12q-291 -12 -385 -47q-210 38 -210 198q0 165 199 187q148 47 490 47v12q70 799 70 1038q-542 26 -613 65.5t-87 132.5v59q0 105 163 163z" />
    <glyph glyph-name="asciicircum" unicode="^" horiz-adv-x="1030" 
d="M492 1768q168 0 490 -444q23 -38 23 -70v-23q-29 -187 -186 -187q-107 0 -304 245h-23q-122 -256 -268 -256h-47q-122 0 -152 175v11q0 74 175 304q119 245 292 245z" />
    <glyph glyph-name="underscore" unicode="_" horiz-adv-x="1579" 
d="M1320 391q234 -21 234 -199q0 -130 -152 -186q-1076 -12 -1190 -59q-187 38 -187 187v35q0 198 537 198q127 12 758 24z" />
    <glyph glyph-name="braceleft" unicode="{" horiz-adv-x="1193" 
d="M830 1838q339 -60 339 -210v-59q0 -122 -187 -163q-156 47 -198 47q-105 -26 -105 -59q35 -303 35 -326q-14 -155 -59 -234l35 -128q-58 -274 -58 -303l23 -12h175q161 0 187 -199q0 -153 -233 -186h-187q-194 0 -315 198q-23 43 -23 93v129q0 58 11 175
q-245 47 -245 187v35q0 166 257 210q47 0 47 46l-35 339q0 264 326 385q99 35 210 35z" />
    <glyph glyph-name="bar" unicode="|" horiz-adv-x="470" 
d="M235 1803h59q151 -43 151 -140q-35 -558 -35 -864v-70q0 -213 12 -537q-53 -186 -175 -186h-35q-175 0 -175 338q-12 171 -12 467q3 833 60 904t150 88z" />
    <glyph glyph-name="braceright" unicode="}" horiz-adv-x="1159" 
d="M387 1873h128q312 0 362 -280v-47q-35 -284 -35 -373q0 -70 163 -70q129 -88 129 -199q0 -167 -245 -198h-12q23 -193 23 -257q0 -267 -315 -397q-42 -23 -93 -23h-292q-175 21 -175 175v35q0 149 257 175h163q70 0 70 70q0 46 -46 327q35 117 35 140q-35 109 -35 198
v140q0 62 11 199h-70q-170 -24 -186 -24q-146 0 -175 187v12q0 181 338 210z" />
    <glyph glyph-name="asciitilde" unicode="~" horiz-adv-x="1392" 
d="M1134 1301h46q156 0 187 -198v-24q0 -250 -292 -392q-63 -30 -129 -30q-17 0 -34 2q-188 0 -432 234h-11q-22 0 -140 -187q-60 -35 -117 -35h-12q-143 0 -175 198q0 166 234 350q103 59 163 59h70q170 0 338 -187q43 -35 82 -35q82 0 82 140q66 105 140 105z" />
    <glyph glyph-name="cent" unicode="&#xa2;" horiz-adv-x="1217" 
d="M655 1709q187 -26 187 -186l-3 -116l178 -59q105 -101 105 -187v-23q-40 -164 -152 -164h-58q-32 0 -140 59q-156 0 -338 -175q-30 -31 -30 -69q0 -17 6 -36q77 -59 222 -59q167 24 362 94h11q187 -32 187 -164v-23q0 -194 -350 -257v-12q-27 -280 -198 -280
q-187 41 -187 164l-3 110q-429 53 -429 445v5q0 346 432 560v128q-1 15 -1 28q0 153 83 184q90 33 116 33z" />
    <glyph glyph-name="sterling" unicode="&#xa3;" horiz-adv-x="1695" 
d="M1180 1756h70q269 -62 269 -257v-23q0 -154 -164 -187h-46q-52 0 -129 70q-82 0 -221 -210l-14 -35q259 0 259 -210q0 -131 -187 -175q-110 12 -210 12h-23q-32 0 -129 -338h12q316 23 537 23h221q246 0 246 -199q0 -169 -246 -186h-315q-430 0 -781 -105
q-187 46 -187 175v35q0 41 105 280q58 122 105 303h-128q-199 29 -199 175v12q0 198 327 198h140q26 6 198 327q250 315 490 315z" />
    <glyph glyph-name="quoteleft" unicode="&#x2018;" horiz-adv-x="563" 
d="M282 1161q-219 0 -257 327v35q80 513 327 513q170 0 187 -198l-129 -280v-59q59 -87 59 -128v-47q0 -128 -187 -163z" />
    <glyph glyph-name="quoteright" unicode="&#x2019;" horiz-adv-x="563" 
d="M282 2036q219 0 257 -327v-35q-80 -513 -327 -513q-170 0 -187 198l129 280v59q-59 87 -59 128v47q0 128 187 163z" />
    <glyph glyph-name="quotedblleft" unicode="&#x201c;" horiz-adv-x="1283" 
d="M282 1161q-219 0 -257 327v35q80 513 327 513q170 0 187 -198l-129 -280v-59q59 -87 59 -128v-47q0 -128 -187 -163zM1001 1161q-219 0 -257 327v35q80 513 327 513q170 0 187 -198l-129 -280v-59q59 -87 59 -128v-47q0 -128 -187 -163z" />
    <glyph glyph-name="quotedblright" unicode="&#x201d;" horiz-adv-x="1283" 
d="M282 2036q219 0 257 -327v-35q-80 -513 -327 -513q-170 0 -187 198l129 280v59q-59 87 -59 128v47q0 128 187 163zM1001 2036q219 0 257 -327v-35q-80 -513 -327 -513q-170 0 -187 198l129 280v59q-59 87 -59 128v47q0 128 187 163z" />
    <glyph glyph-name="ellipsis" unicode="&#x2026;" horiz-adv-x="2133" 
d="M435 797q139 -116 139 -235q0 -60 -35 -121q-71 -123 -201 -123q-79 0 -180 46q-133 113 -133 226q0 57 33 114q75 130 212 130q74 0 165 -37zM1202 797q139 -116 139 -235q0 -60 -35 -121q-71 -123 -201 -123q-79 0 -180 46q-133 113 -133 226q0 57 33 114
q75 130 212 130q74 0 165 -37zM1969 797q139 -116 139 -235q0 -60 -35 -121q-71 -123 -200 -123q-80 0 -181 46q-133 113 -133 227q0 56 33 113q75 130 212 130q74 0 165 -37z" />
    <glyph glyph-name="Euro" unicode="&#x20ac;" horiz-adv-x="1823" 
d="M1425 1803q157 0 292 -140q24 -32 47 -117q-41 -187 -164 -187h-58q-142 59 -152 59q-263 0 -501 -269v-11q274 -12 408 -12q233 0 233 -210q0 -128 -198 -175q-324 12 -537 12h-93q0 -304 338 -304q167 0 537 140q195 0 222 -175v-11q0 -246 -747 -339h-23
q-387 0 -619 315q-93 162 -93 350l-82 -11h-23q-187 32 -187 175q0 207 385 245l140 210q390 455 875 455z" />
    <glyph glyph-name="trademark" unicode="&#x2122;" horiz-adv-x="575" 
d="M294 1231q223 0 256 -280q-80 -257 -268 -257q-257 55 -257 245v47q0 194 269 245z" />
    </font>
</defs>
</svg>
